<mxfile host="app.diagrams.net" modified="2024-01-29T09:47:58.803Z" agent="Mozilla/5.0 (Windows NT 10.0; Win64; x64) AppleWebKit/537.36 (KHTML, like Gecko) Chrome/120.0.0.0 Safari/537.36" etag="1cUY1wsfi9EO8VeK_FE3" version="23.0.2" type="github">
  <diagram name="Page-1" id="FeqBj5vPtAPxshJGMHiz">
    <mxGraphModel dx="2101" dy="850" grid="1" gridSize="10" guides="1" tooltips="1" connect="1" arrows="1" fold="1" page="1" pageScale="1" pageWidth="827" pageHeight="1169" math="0" shadow="0">
      <root>
        <mxCell id="0" />
        <mxCell id="1" parent="0" />
        <mxCell id="Qn28iX6SNSnFuoeIM-P5-10" value="" style="verticalLabelPosition=bottom;dashed=0;shadow=0;html=1;align=center;verticalAlign=top;shape=mxgraph.cabinets.cabinet;hasStand=1" vertex="1" parent="1">
          <mxGeometry x="-30" y="20" width="250" height="490" as="geometry" />
        </mxCell>
        <mxCell id="Qn28iX6SNSnFuoeIM-P5-5" value="Subensamblaje N" style="swimlane;whiteSpace=wrap;html=1;" vertex="1" parent="1">
          <mxGeometry x="260" y="50" width="534" height="714.53" as="geometry" />
        </mxCell>
        <mxCell id="Qn28iX6SNSnFuoeIM-P5-12" value="" style="verticalLabelPosition=bottom;dashed=0;shadow=0;html=1;align=center;verticalAlign=top;shape=mxgraph.cabinets.cabinet;hasStand=1" vertex="1" parent="Qn28iX6SNSnFuoeIM-P5-5">
          <mxGeometry x="50" y="60" width="390" height="360" as="geometry" />
        </mxCell>
        <mxCell id="Qn28iX6SNSnFuoeIM-P5-22" style="edgeStyle=orthogonalEdgeStyle;rounded=0;orthogonalLoop=1;jettySize=auto;html=1;exitX=0.5;exitY=1;exitDx=0;exitDy=0;entryX=0.5;entryY=0;entryDx=0;entryDy=0;" edge="1" parent="Qn28iX6SNSnFuoeIM-P5-5" source="Qn28iX6SNSnFuoeIM-P5-9" target="Qn28iX6SNSnFuoeIM-P5-20">
          <mxGeometry relative="1" as="geometry" />
        </mxCell>
        <mxCell id="Qn28iX6SNSnFuoeIM-P5-23" style="edgeStyle=orthogonalEdgeStyle;rounded=0;orthogonalLoop=1;jettySize=auto;html=1;exitX=0.5;exitY=1;exitDx=0;exitDy=0;entryX=0.5;entryY=0;entryDx=0;entryDy=0;" edge="1" parent="Qn28iX6SNSnFuoeIM-P5-5" source="Qn28iX6SNSnFuoeIM-P5-9" target="Qn28iX6SNSnFuoeIM-P5-21">
          <mxGeometry relative="1" as="geometry" />
        </mxCell>
        <mxCell id="Qn28iX6SNSnFuoeIM-P5-24" style="edgeStyle=orthogonalEdgeStyle;rounded=0;orthogonalLoop=1;jettySize=auto;html=1;exitX=1;exitY=0.5;exitDx=0;exitDy=0;entryX=1;entryY=0.5;entryDx=0;entryDy=0;" edge="1" parent="Qn28iX6SNSnFuoeIM-P5-5" source="Qn28iX6SNSnFuoeIM-P5-9" target="Qn28iX6SNSnFuoeIM-P5-14">
          <mxGeometry relative="1" as="geometry" />
        </mxCell>
        <mxCell id="Qn28iX6SNSnFuoeIM-P5-9" value="Periferia descentralizada&lt;br&gt;Marca x" style="rounded=0;whiteSpace=wrap;html=1;" vertex="1" parent="Qn28iX6SNSnFuoeIM-P5-5">
          <mxGeometry x="177.5" y="286" width="120" height="60" as="geometry" />
        </mxCell>
        <mxCell id="Qn28iX6SNSnFuoeIM-P5-13" value="Subcuadro N" style="text;html=1;strokeColor=none;fillColor=none;align=center;verticalAlign=middle;whiteSpace=wrap;rounded=0;" vertex="1" parent="Qn28iX6SNSnFuoeIM-P5-5">
          <mxGeometry x="170" y="30" width="135" height="30" as="geometry" />
        </mxCell>
        <mxCell id="Qn28iX6SNSnFuoeIM-P5-14" value="DistribuciÃ³n local monitorizada y rearmable remotamente" style="rounded=0;whiteSpace=wrap;html=1;" vertex="1" parent="Qn28iX6SNSnFuoeIM-P5-5">
          <mxGeometry x="177.5" y="136" width="120" height="60" as="geometry" />
        </mxCell>
        <mxCell id="Qn28iX6SNSnFuoeIM-P5-37" style="edgeStyle=orthogonalEdgeStyle;rounded=0;orthogonalLoop=1;jettySize=auto;html=1;exitX=0.75;exitY=1;exitDx=0;exitDy=0;entryX=0;entryY=0.8;entryDx=0;entryDy=0;" edge="1" parent="Qn28iX6SNSnFuoeIM-P5-5" source="Qn28iX6SNSnFuoeIM-P5-20" target="Qn28iX6SNSnFuoeIM-P5-32">
          <mxGeometry relative="1" as="geometry" />
        </mxCell>
        <mxCell id="Qn28iX6SNSnFuoeIM-P5-20" value="E/S locales" style="rounded=1;whiteSpace=wrap;html=1;" vertex="1" parent="Qn28iX6SNSnFuoeIM-P5-5">
          <mxGeometry x="94" y="446" width="120" height="60" as="geometry" />
        </mxCell>
        <mxCell id="Qn28iX6SNSnFuoeIM-P5-21" value="Pneumatica local" style="rounded=1;whiteSpace=wrap;html=1;" vertex="1" parent="Qn28iX6SNSnFuoeIM-P5-5">
          <mxGeometry x="270" y="446" width="120" height="60" as="geometry" />
        </mxCell>
        <mxCell id="Qn28iX6SNSnFuoeIM-P5-34" style="edgeStyle=orthogonalEdgeStyle;rounded=0;orthogonalLoop=1;jettySize=auto;html=1;exitX=1;exitY=0.5;exitDx=0;exitDy=0;entryX=0;entryY=0.8;entryDx=0;entryDy=0;" edge="1" parent="Qn28iX6SNSnFuoeIM-P5-5" source="Qn28iX6SNSnFuoeIM-P5-26" target="Qn28iX6SNSnFuoeIM-P5-30">
          <mxGeometry relative="1" as="geometry" />
        </mxCell>
        <mxCell id="Qn28iX6SNSnFuoeIM-P5-26" value="In Conector linea vida" style="rounded=0;whiteSpace=wrap;html=1;" vertex="1" parent="Qn28iX6SNSnFuoeIM-P5-5">
          <mxGeometry x="-10" y="566" width="146" height="24" as="geometry" />
        </mxCell>
        <mxCell id="Qn28iX6SNSnFuoeIM-P5-27" value="Conector linea vida Out" style="rounded=0;whiteSpace=wrap;html=1;" vertex="1" parent="Qn28iX6SNSnFuoeIM-P5-5">
          <mxGeometry x="360" y="566" width="146" height="24" as="geometry" />
        </mxCell>
        <mxCell id="Qn28iX6SNSnFuoeIM-P5-31" value="Detector seguridad doble canal n" style="swimlane;whiteSpace=wrap;html=1;startSize=50;" vertex="1" parent="Qn28iX6SNSnFuoeIM-P5-5">
          <mxGeometry x="200" y="535" width="123" height="130" as="geometry" />
        </mxCell>
        <mxCell id="Qn28iX6SNSnFuoeIM-P5-33" value="" style="edgeStyle=orthogonalEdgeStyle;rounded=0;orthogonalLoop=1;jettySize=auto;html=1;" edge="1" parent="Qn28iX6SNSnFuoeIM-P5-31" source="Qn28iX6SNSnFuoeIM-P5-30">
          <mxGeometry relative="1" as="geometry">
            <mxPoint x="61.4736842105267" y="90" as="targetPoint" />
          </mxGeometry>
        </mxCell>
        <mxCell id="Qn28iX6SNSnFuoeIM-P5-30" value="" style="html=1;shape=mxgraph.electrical.electro-mechanical.singleSwitch;aspect=fixed;elSwitchState=off;" vertex="1" parent="Qn28iX6SNSnFuoeIM-P5-31">
          <mxGeometry x="24" y="66" width="75" height="20" as="geometry" />
        </mxCell>
        <mxCell id="Qn28iX6SNSnFuoeIM-P5-32" value="" style="html=1;shape=mxgraph.electrical.electro-mechanical.singleSwitch;aspect=fixed;elSwitchState=off;" vertex="1" parent="Qn28iX6SNSnFuoeIM-P5-31">
          <mxGeometry x="24" y="96" width="75" height="20" as="geometry" />
        </mxCell>
        <mxCell id="Qn28iX6SNSnFuoeIM-P5-35" style="edgeStyle=orthogonalEdgeStyle;rounded=0;orthogonalLoop=1;jettySize=auto;html=1;exitX=1;exitY=0.8;exitDx=0;exitDy=0;entryX=0;entryY=0.75;entryDx=0;entryDy=0;" edge="1" parent="Qn28iX6SNSnFuoeIM-P5-5" source="Qn28iX6SNSnFuoeIM-P5-30" target="Qn28iX6SNSnFuoeIM-P5-27">
          <mxGeometry relative="1" as="geometry" />
        </mxCell>
        <mxCell id="Qn28iX6SNSnFuoeIM-P5-38" style="edgeStyle=orthogonalEdgeStyle;rounded=0;orthogonalLoop=1;jettySize=auto;html=1;exitX=1;exitY=0.8;exitDx=0;exitDy=0;entryX=0.5;entryY=1;entryDx=0;entryDy=0;" edge="1" parent="Qn28iX6SNSnFuoeIM-P5-5" source="Qn28iX6SNSnFuoeIM-P5-32" target="Qn28iX6SNSnFuoeIM-P5-20">
          <mxGeometry relative="1" as="geometry">
            <Array as="points">
              <mxPoint x="330" y="647" />
              <mxPoint x="330" y="680" />
              <mxPoint x="154" y="680" />
            </Array>
          </mxGeometry>
        </mxCell>
        <mxCell id="Qn28iX6SNSnFuoeIM-P5-39" value="" style="shape=image;verticalLabelPosition=bottom;labelBackgroundColor=default;verticalAlign=top;aspect=fixed;imageAspect=0;image=https://m.media-amazon.com/images/I/61IphYwvNgL._AC_SL1000_.jpg;" vertex="1" parent="Qn28iX6SNSnFuoeIM-P5-5">
          <mxGeometry x="-40" y="600" width="104" height="84.1" as="geometry" />
        </mxCell>
        <mxCell id="Qn28iX6SNSnFuoeIM-P5-40" value="" style="shape=image;verticalLabelPosition=bottom;labelBackgroundColor=default;verticalAlign=top;aspect=fixed;imageAspect=0;image=https://m.media-amazon.com/images/I/61IphYwvNgL._AC_SL1000_.jpg;" vertex="1" parent="Qn28iX6SNSnFuoeIM-P5-5">
          <mxGeometry x="430" y="610" width="104" height="84.1" as="geometry" />
        </mxCell>
        <mxCell id="Qn28iX6SNSnFuoeIM-P5-41" value="" style="shape=image;verticalLabelPosition=bottom;labelBackgroundColor=default;verticalAlign=top;aspect=fixed;imageAspect=0;image=https://cdn2.iconfinder.com/data/icons/computer-icons/100/PC2_go-37-512.png;" vertex="1" parent="Qn28iX6SNSnFuoeIM-P5-5">
          <mxGeometry x="20" y="240" width="92" height="92" as="geometry" />
        </mxCell>
        <mxCell id="Qn28iX6SNSnFuoeIM-P5-18" style="edgeStyle=orthogonalEdgeStyle;rounded=0;orthogonalLoop=1;jettySize=auto;html=1;exitX=0.5;exitY=1;exitDx=0;exitDy=0;entryX=0.5;entryY=0;entryDx=0;entryDy=0;" edge="1" parent="1" source="Qn28iX6SNSnFuoeIM-P5-2" target="Qn28iX6SNSnFuoeIM-P5-9">
          <mxGeometry relative="1" as="geometry" />
        </mxCell>
        <mxCell id="Qn28iX6SNSnFuoeIM-P5-2" value="PLC Principal" style="rounded=0;whiteSpace=wrap;html=1;" vertex="1" parent="1">
          <mxGeometry x="35" y="235" width="120" height="65" as="geometry" />
        </mxCell>
        <mxCell id="Qn28iX6SNSnFuoeIM-P5-17" style="edgeStyle=orthogonalEdgeStyle;rounded=0;orthogonalLoop=1;jettySize=auto;html=1;exitX=0.5;exitY=1;exitDx=0;exitDy=0;entryX=0.5;entryY=0;entryDx=0;entryDy=0;" edge="1" parent="1" source="Qn28iX6SNSnFuoeIM-P5-11" target="Qn28iX6SNSnFuoeIM-P5-14">
          <mxGeometry relative="1" as="geometry" />
        </mxCell>
        <mxCell id="Qn28iX6SNSnFuoeIM-P5-11" value="Potencia general" style="rounded=0;whiteSpace=wrap;html=1;" vertex="1" parent="1">
          <mxGeometry x="35" y="90" width="120" height="60" as="geometry" />
        </mxCell>
      </root>
    </mxGraphModel>
  </diagram>
</mxfile>
